<?xml version="1.0" standalone="no"?>

<svg xmlns="http://www.w3.org/2000/svg" id="Layer_2" data-name="Layer 2" viewBox="0 0 142.95 109.4" width="142.9499969482422" height="109.4000015258789">
  <g id="Logo_couleur" data-name="Logo couleur">
    <polygon points="0 109.4 57.5 77.54 70.37 109.4 0 109.4"></polygon>
    <path d="M40.31,37.39h0s15.65-23.22,15.65-23.22h0c-7.22-4.87-16.58-3.62-20.9,2.79-4.32,6.42-1.97,15.56,5.26,20.43ZM103.86,37.39c7.23-4.87,9.58-14.01,5.26-20.43-4.32-6.41-13.68-7.66-20.91-2.8h0s15.65,23.22,15.65,23.22h0ZM1.36,109.4h69.01l-12.59-31.17L1.36,109.4ZM85.99,78.3l-12.56,31.1h68.85l-56.29-31.1Z"></path>
    <path d="M72.55,0l14,71.56,23.84-15.62L72.55,0ZM57.25,71.58L71.25,0l-37.85,55.96,23.85,15.62Z"></path>
    <path d="M.94,104.12l52.72-29.12-22.93-15.02L.94,104.12ZM113.06,59.96l-23.01,15.07,52.9,29.22-29.89-44.29Z"></path>
  </g>
</svg>